# xmcd
#
# Track frame offsets: 
#        150
#        14505
#        30760
#        45355
#        62917
#        77477
#        93691
#        110163
#        123585
#        137843
#        154087
#        171058
#        187171
#        205737
#        222967
#        238353
#        251369
#        267926
#        285755
#        296345
#
# Disc length: 4227 seconds
#
# Revision: 0
# Processed by: cddbd v1.5.2PL0 Copyright (c) Steve Scherf et al.
# Submitted via: ExactAudioCopy v0.99pb5
#
DISCID=1e108114
DTITLE=Various Artist - Brigitte Musik - Here Comes The Sun CD1
DYEAR=2010
DGENRE=Pop
TTITLE0=Hempel - Here Comes The Sun
TTITLE1=Train - Hey, Soul Sister
TTITLE2=Lily Allen - Smile
TTITLE3=Wir Sind Helden - Nur ein Wort
TTITLE4=The Kooks - Shine On
TTITLE5=Moloko - Sing It Back
TTITLE6=Jan Delay - Feuer
TTITLE7=The Jackson 5 - I Want You Back
TTITLE8=Bosse - Der Sommer ist noch lang
TTITLE9=Peter Fox - Haus am See
TTITLE10=Jamiroquai - Love Foolosophy
TTITLE11=Corinne Bailey Rae - Put Your Records On
TTITLE12=Bill Withers - Lovely Day
TTITLE13=2raumwohnung - 36 Grad
TTITLE14=Clueso - Keinen Zentimeter
TTITLE15=The Friends Of Distinction - Grazing In The Grass
TTITLE16=Stereolab - Miss Modular
TTITLE17=Mia. - Tanz der Moleküle
TTITLE18=Bernd Begemann - Wenn der Sommer Dich findet
TTITLE19=Die Fantastischen Vier - Tag am Meer
EXTD=
EXTT0=
EXTT1=
EXTT2=
EXTT3=
EXTT4=
EXTT5=
EXTT6=
EXTT7=
EXTT8=
EXTT9=
EXTT10=
EXTT11=
EXTT12=
EXTT13=
EXTT14=
EXTT15=
EXTT16=
EXTT17=
EXTT18=
EXTT19=
PLAYORDER=
